<?xml version="1.0" standalone="no"?>
<!DOCTYPE svg PUBLIC "-//W3C//DTD SVG 20010904//EN"
 "http://www.w3.org/TR/2001/REC-SVG-20010904/DTD/svg10.dtd">
<svg version="1.0" xmlns="http://www.w3.org/2000/svg"
 width="1668.000000pt" height="2388.000000pt" viewBox="0 0 1668.000000 2388.000000"
 preserveAspectRatio="xMidYMid meet">

<g transform="translate(0.000000,2388.000000) scale(0.100000,-0.100000)"
fill="#000000" stroke="none">
<path d="M9614 18765 c-10 -8 -40 -15 -65 -15 -61 0 -78 -15 -182 -157 -47
-65 -111 -149 -140 -188 -30 -38 -150 -198 -266 -355 -117 -157 -241 -323
-276 -370 -64 -83 -120 -159 -595 -800 -128 -173 -290 -391 -360 -485 -70 -93
-196 -264 -281 -380 -85 -115 -222 -301 -306 -411 -83 -111 -197 -267 -254
-345 -56 -79 -118 -164 -139 -189 -20 -25 -196 -263 -392 -530 -195 -267 -397
-542 -449 -611 -209 -282 -937 -1264 -1066 -1439 -120 -163 -307 -412 -384
-510 -116 -149 -119 -209 -16 -350 20 -27 47 -50 68 -57 26 -10 338 -12 1381
-10 740 1 1349 -1 1352 -4 4 -4 -16 -73 -44 -155 -28 -82 -141 -428 -251 -769
-110 -341 -256 -791 -324 -1000 -68 -209 -180 -562 -250 -785 -70 -223 -163
-517 -207 -655 -44 -137 -112 -349 -150 -470 -38 -121 -114 -359 -168 -530
-54 -170 -115 -366 -135 -435 -20 -69 -84 -273 -141 -455 -360 -1131 -354
-1107 -312 -1179 37 -62 118 -92 182 -67 12 5 32 0 55 -12 26 -13 50 -17 89
-14 97 7 104 18 308 422 99 198 231 455 292 570 62 116 221 426 353 689 132
264 283 559 334 655 51 97 149 286 218 421 68 135 191 373 272 530 81 157 175
344 209 415 34 72 111 220 171 329 59 110 161 308 225 440 64 133 182 367 262
521 80 154 316 620 525 1035 209 415 394 780 411 810 16 30 80 162 142 293
111 234 113 239 101 277 -7 22 -24 48 -40 59 -37 26 -49 80 -26 115 21 31 2
45 -19 14 -16 -22 -20 -19 -17 13 2 21 -168 44 -254 34 -118 -13 -715 -17
-799 -4 -139 20 -218 21 -393 5 -125 -11 -299 -15 -676 -15 l-508 0 26 47 c29
50 354 655 490 912 46 85 133 250 195 365 62 116 155 291 207 390 146 276 184
348 343 645 81 151 184 347 230 435 80 154 114 218 212 405 25 47 98 189 163
315 65 127 148 284 185 350 37 66 96 179 132 250 70 140 198 385 420 803 123
229 143 262 164 262 13 0 151 -7 306 -15 156 -8 407 -19 558 -25 491 -19 1394
-60 1397 -64 6 -5 -16 -1000 -22 -1056 -5 -42 -11 -253 -35 -1140 -5 -195 -14
-494 -19 -665 -6 -170 -15 -461 -21 -645 -6 -184 -15 -474 -20 -645 -11 -320
-28 -1191 -31 -1512 l-2 -182 -38 -31 c-44 -35 -74 -86 -85 -145 -9 -48 -30
-98 -214 -505 -144 -319 -205 -457 -310 -700 -93 -217 -240 -547 -353 -796
-58 -128 -154 -341 -213 -475 -59 -134 -143 -325 -186 -424 -44 -99 -119 -270
-167 -380 -49 -110 -200 -454 -338 -765 -138 -311 -330 -749 -428 -975 -98
-225 -235 -540 -305 -700 -173 -393 -178 -410 -142 -470 10 -16 19 -49 20 -73
1 -53 32 -104 78 -133 49 -30 138 -24 186 13 22 17 108 145 249 369 198 315
312 496 561 884 49 77 170 266 267 420 98 154 327 516 511 805 308 487 395
623 777 1225 346 544 931 1467 1040 1640 251 398 339 535 435 680 55 82 109
168 121 190 29 55 28 130 -1 177 -22 35 -22 42 -13 115 6 43 10 164 9 268 -3
462 0 752 11 1210 6 270 14 643 16 830 3 187 9 475 15 640 11 349 35 1119 50
1650 6 204 15 521 20 705 6 184 12 379 13 432 1 53 5 99 7 102 3 2 160 -2 350
-10 190 -8 510 -21 711 -29 463 -18 975 -42 1194 -55 388 -23 367 -23 402 -1
58 36 64 56 75 228 5 87 8 273 6 413 -3 234 -5 258 -24 295 -14 28 -33 46 -65
62 -47 23 -157 28 -1349 63 -173 6 -430 14 -570 20 -634 25 -815 30 -1270 40
-267 6 -636 15 -820 20 -784 23 -1385 41 -1680 50 -429 13 -472 13 -496 -5z"/>
<path d="M8461 13113 c-35 -43 -39 -63 -13 -63 11 0 27 16 40 39 39 69 22 84
-27 24z"/>
</g>
</svg>
